<svg width="287" height="86" viewBox="0 0 287 86" fill="none" xmlns="http://www.w3.org/2000/svg">
<path d="M276.722 85.088H10.4705C4.8574 85.088 0.317383 80.5378 0.317383 74.9122V10.1758C0.317383 4.55016 4.8574 0 10.4705 0H276.681C282.294 0 286.834 4.55016 286.834 10.1758V74.9122C286.875 80.5378 282.335 85.088 276.722 85.088Z" fill="#A6A6A6"/>
<path d="M284.894 75.0364C284.894 79.5452 281.262 83.1853 276.763 83.1853H10.429C5.93024 83.1853 2.25696 79.5452 2.25696 75.0364V10.0518C2.25696 5.54297 5.93024 1.90283 10.429 1.90283H276.763C281.262 1.90283 284.894 5.54297 284.894 10.0518V75.0364Z" fill="black"/>
<path d="M64.3726 42.1098C64.3313 35.2432 69.9857 31.934 70.2333 31.7685C67.014 27.0942 62.0613 26.4324 60.2865 26.391C56.118 25.936 52.0732 28.9143 49.9271 28.9143C47.7396 28.9143 44.479 26.4738 40.9708 26.5151C36.4308 26.5979 32.1797 29.2039 29.8272 33.299C24.9982 41.6548 28.589 53.8988 33.2115 60.6413C35.5228 63.9506 38.2056 67.6321 41.7138 67.508C45.1807 67.3839 46.4601 65.3156 50.6287 65.3156C54.756 65.3156 55.9529 67.508 59.5436 67.4252C63.2582 67.3839 65.5695 64.116 67.7982 60.7655C70.481 57.0012 71.5128 53.237 71.554 53.0715C71.5128 53.0302 64.4138 50.3001 64.3726 42.1098Z" fill="white"/>
<path d="M57.5625 21.9237C59.4198 19.6073 60.6992 16.4222 60.3278 13.2371C57.645 13.3612 54.3019 15.0985 52.3621 17.3736C50.6699 19.3591 49.1015 22.6683 49.5143 25.7707C52.5272 25.9775 55.6227 24.1988 57.5625 21.9237Z" fill="white"/>
<path d="M114.272 67.0117H109.443L106.801 58.6974H97.6386L95.121 67.0117H90.4159L99.4959 38.718H105.109L114.272 67.0117ZM106.017 55.2227L103.623 47.8183C103.376 47.0738 102.88 45.2951 102.179 42.4822H102.096C101.807 43.6818 101.353 45.4605 100.734 47.8183L98.3816 55.2227H106.017Z" fill="white"/>
<path d="M137.673 56.5461C137.673 60.0208 136.724 62.7509 134.867 64.7778C133.174 66.5565 131.111 67.4665 128.634 67.4665C125.952 67.4665 124.012 66.5151 122.856 64.5709H122.774V75.3259H118.234V53.3196C118.234 51.1273 118.192 48.8936 118.069 46.6185H122.072L122.32 49.845H122.402C123.929 47.4044 126.199 46.2048 129.295 46.2048C131.689 46.2048 133.711 47.1562 135.321 49.059C136.848 50.9618 137.673 53.4437 137.673 56.5461ZM133.051 56.7529C133.051 54.7674 132.597 53.1128 131.73 51.8305C130.739 50.4654 129.419 49.8036 127.809 49.8036C126.695 49.8036 125.663 50.1759 124.755 50.9205C123.847 51.665 123.269 52.6578 122.98 53.8574C122.856 54.4365 122.774 54.8915 122.774 55.2224V58.6144C122.774 60.1035 123.228 61.3445 124.136 62.3786C125.044 63.4127 126.241 63.9091 127.685 63.9091C129.377 63.9091 130.698 63.2473 131.647 61.9236C132.555 60.6413 133.051 58.9039 133.051 56.7529Z" fill="white"/>
<path d="M161.075 56.5461C161.075 60.0208 160.126 62.7509 158.269 64.7778C156.576 66.5565 154.513 67.4665 152.036 67.4665C149.354 67.4665 147.414 66.5151 146.258 64.5709H146.176V75.3259H141.636V53.3196C141.636 51.1273 141.594 48.8936 141.471 46.6185H145.433L145.68 49.845H145.763C147.249 47.4044 149.56 46.2048 152.614 46.2048C155.008 46.2048 157.03 47.1562 158.64 49.059C160.291 50.9618 161.075 53.4437 161.075 56.5461ZM156.494 56.7529C156.494 54.7674 156.04 53.1128 155.132 51.8305C154.141 50.4654 152.862 49.8036 151.211 49.8036C150.097 49.8036 149.065 50.1759 148.157 50.9205C147.249 51.665 146.671 52.6578 146.382 53.8574C146.258 54.4365 146.176 54.8915 146.176 55.2224V58.6144C146.176 60.1035 146.63 61.3445 147.538 62.3786C148.446 63.4127 149.643 63.9091 151.087 63.9091C152.779 63.9091 154.1 63.2473 155.049 61.9236C155.999 60.6413 156.494 58.9039 156.494 56.7529Z" fill="white"/>
<path d="M187.283 59.0695C187.283 61.4687 186.458 63.4542 184.766 64.9433C182.908 66.5979 180.35 67.4252 177.089 67.4252C174.035 67.4252 171.6 66.8461 169.784 65.6465L170.816 61.8823C172.797 63.0819 174.984 63.7024 177.378 63.7024C179.07 63.7024 180.391 63.3301 181.381 62.5441C182.331 61.7582 182.785 60.7241 182.785 59.4418C182.785 58.2835 182.413 57.3321 181.629 56.5462C180.845 55.7603 179.565 55.0157 177.749 54.3539C172.797 52.4924 170.32 49.8037 170.32 46.2463C170.32 43.9298 171.187 42.0271 172.92 40.5379C174.654 39.0488 176.965 38.3042 179.854 38.3042C182.413 38.3042 184.559 38.7592 186.252 39.6279L185.137 43.3094C183.528 42.4407 181.753 42.027 179.73 42.027C178.121 42.027 176.883 42.3993 176.016 43.1853C175.273 43.8885 174.902 44.7572 174.902 45.7499C174.902 46.8668 175.314 47.7768 176.181 48.5214C176.924 49.1832 178.286 49.9278 180.308 50.7137C182.743 51.7065 184.518 52.8233 185.674 54.147C186.706 55.4707 187.283 57.1253 187.283 59.0695Z" fill="white"/>
<path d="M202.224 50.0106H197.23V59.9382C197.23 62.4615 198.097 63.7025 199.871 63.7025C200.697 63.7025 201.357 63.6197 201.894 63.4956L202.018 66.9289C201.11 67.2599 199.954 67.4253 198.509 67.4253C196.735 67.4253 195.331 66.8876 194.3 65.7707C193.309 64.6952 192.773 62.8338 192.773 60.2692V49.9692H189.801V46.5773H192.773V42.8544L197.23 41.5308V46.6187H202.224V50.0106Z" fill="white"/>
<path d="M224.759 56.6702C224.759 59.8139 223.851 62.3786 222.076 64.4055C220.219 66.4737 217.701 67.5079 214.606 67.5079C211.634 67.5079 209.24 66.5151 207.466 64.5296C205.691 62.5441 204.824 60.0208 204.824 57.0011C204.824 53.8574 205.732 51.2514 207.548 49.2245C209.364 47.1976 211.841 46.2048 214.936 46.2048C217.908 46.2048 220.343 47.1976 222.159 49.1831C223.892 51.1273 224.759 53.6092 224.759 56.6702ZM220.054 56.7943C220.054 54.9329 219.641 53.2783 218.857 51.9546C217.908 50.3413 216.546 49.514 214.771 49.514C212.955 49.514 211.552 50.3413 210.644 51.9546C209.818 53.3196 209.447 54.9329 209.447 56.877C209.447 58.7385 209.86 60.3517 210.644 61.7167C211.634 63.33 212.996 64.1573 214.73 64.1573C216.463 64.1573 217.825 63.33 218.774 61.6754C219.641 60.3103 220.054 58.6557 220.054 56.7943Z" fill="white"/>
<path d="M239.452 50.5894C238.998 50.5067 238.544 50.4653 238.008 50.4653C236.398 50.4653 235.201 51.0858 234.334 52.2854C233.592 53.3609 233.22 54.6846 233.22 56.3392V67.0528H228.68L228.721 53.0713C228.721 50.7135 228.68 48.5625 228.556 46.6598H232.518L232.684 50.5481H232.807C233.303 49.2244 234.046 48.1075 235.077 47.3216C236.068 46.577 237.182 46.2461 238.338 46.2461C238.751 46.2461 239.122 46.2875 239.452 46.3288V50.5894Z" fill="white"/>
<path d="M259.717 55.8429C259.717 56.6702 259.676 57.332 259.552 57.9111H245.973C246.015 59.938 246.675 61.4685 247.955 62.544C249.11 63.4954 250.596 63.9504 252.412 63.9504C254.434 63.9504 256.25 63.6195 257.901 62.999L258.603 66.1428C256.663 66.9701 254.393 67.3837 251.793 67.3837C248.615 67.3837 246.139 66.4737 244.364 64.5709C242.548 62.7095 241.681 60.2276 241.681 57.0838C241.681 54.0228 242.506 51.4582 244.199 49.3899C245.973 47.1976 248.326 46.1221 251.339 46.1221C254.269 46.1221 256.498 47.1976 258.025 49.3899C259.098 51.1686 259.717 53.3196 259.717 55.8429ZM255.384 54.6846C255.425 53.361 255.136 52.1614 254.517 51.21C253.733 49.969 252.536 49.3072 250.926 49.3072C249.44 49.3072 248.243 49.9277 247.335 51.1686C246.592 52.1614 246.138 53.3196 246.015 54.6846H255.384Z" fill="white"/>
<path d="M104.531 21.3026C104.531 23.8258 103.788 25.6873 102.303 26.9696C100.899 28.1278 98.9595 28.7069 96.4006 28.7069C95.1211 28.7069 94.048 28.6656 93.14 28.5415V14.8496C94.3369 14.6428 95.6164 14.5601 96.9784 14.5601C99.4135 14.5601 101.229 15.0978 102.468 16.1319C103.83 17.3729 104.531 19.0689 104.531 21.3026ZM102.179 21.3439C102.179 19.7307 101.766 18.4897 100.899 17.6211C100.033 16.7524 98.7944 16.3388 97.1435 16.3388C96.4418 16.3388 95.864 16.3801 95.3688 16.5042V26.8869C95.6577 26.9282 96.1529 26.9282 96.8546 26.9282C98.5468 26.9282 99.8675 26.4732 100.775 25.5218C101.725 24.5704 102.179 23.164 102.179 21.3439Z" fill="white"/>
<path d="M116.955 23.4954C116.955 25.0259 116.501 26.3082 115.634 27.301C114.726 28.3351 113.488 28.8315 111.961 28.8315C110.475 28.8315 109.319 28.3351 108.452 27.3837C107.586 26.3909 107.132 25.1913 107.132 23.7022C107.132 22.1303 107.586 20.8894 108.494 19.8966C109.402 18.9039 110.599 18.4075 112.126 18.4075C113.611 18.4075 114.767 18.9039 115.675 19.8552C116.542 20.7653 116.955 21.9649 116.955 23.4954ZM114.643 23.5367C114.643 22.6267 114.437 21.7994 114.065 21.1789C113.611 20.393 112.951 19.9793 112.084 19.9793C111.176 19.9793 110.516 20.393 110.062 21.1789C109.649 21.8408 109.484 22.6681 109.484 23.5781C109.484 24.4881 109.691 25.3154 110.062 25.9773C110.557 26.7632 111.218 27.1769 112.084 27.1769C112.951 27.1769 113.611 26.7632 114.065 25.9359C114.437 25.2741 114.643 24.4881 114.643 23.5367Z" fill="white"/>
<path d="M133.629 18.5317L130.492 28.5834H128.47L127.19 24.2401C126.86 23.1646 126.612 22.0891 126.406 21.0136H126.365C126.158 22.1305 125.911 23.206 125.581 24.2401L124.136 28.5834H122.072L119.142 18.5317H121.412L122.526 23.2887C122.815 24.4056 123.022 25.4811 123.228 26.5152H123.269C123.434 25.6879 123.723 24.6124 124.095 23.3301L125.498 18.5317H127.314L128.676 23.206C129.006 24.3642 129.254 25.4397 129.46 26.5152H129.502C129.667 25.4811 129.873 24.3642 130.203 23.206L131.4 18.5317H133.629Z" fill="white"/>
<path d="M145.144 28.5833H142.915V22.8335C142.915 21.0548 142.255 20.1862 140.893 20.1862C140.232 20.1862 139.696 20.4344 139.283 20.9307C138.87 21.4271 138.664 22.0062 138.664 22.6681V28.6247H136.435V21.4685C136.435 20.5998 136.394 19.6484 136.353 18.6143H138.292L138.375 20.1862H138.416C138.664 19.6898 139.077 19.3175 139.572 18.9866C140.191 18.6143 140.851 18.4075 141.594 18.4075C142.543 18.4075 143.286 18.697 143.905 19.3175C144.69 20.0621 145.061 21.1789 145.061 22.6267V28.5833H145.144Z" fill="white"/>
<path d="M151.294 28.5829H149.065V13.9397H151.294V28.5829Z" fill="white"/>
<path d="M164.377 23.4954C164.377 25.0259 163.923 26.3082 163.056 27.301C162.148 28.3351 160.91 28.8315 159.383 28.8315C157.897 28.8315 156.742 28.3351 155.875 27.3837C155.008 26.3909 154.554 25.1913 154.554 23.7022C154.554 22.1303 155.008 20.8894 155.916 19.8966C156.824 18.9039 158.021 18.4075 159.548 18.4075C161.034 18.4075 162.19 18.9039 163.098 19.8552C163.964 20.7653 164.377 21.9649 164.377 23.4954ZM162.107 23.5367C162.107 22.6267 161.901 21.7994 161.529 21.1789C161.075 20.393 160.415 19.9793 159.548 19.9793C158.64 19.9793 157.98 20.393 157.526 21.1789C157.113 21.8408 156.907 22.6681 156.907 23.5781C156.907 24.4881 157.113 25.3154 157.526 25.9773C158.021 26.7632 158.681 27.1769 159.548 27.1769C160.415 27.1769 161.075 26.7632 161.529 25.9359C161.901 25.2741 162.107 24.4881 162.107 23.5367Z" fill="white"/>
<path d="M175.149 28.5831H173.168L173.003 27.4249H172.962C172.26 28.3349 171.311 28.79 170.031 28.79C169.082 28.79 168.339 28.5004 167.761 27.8799C167.225 27.3422 166.977 26.639 166.977 25.853C166.977 24.6121 167.472 23.7021 168.504 23.0402C169.536 22.3784 170.981 22.0888 172.838 22.0888V21.9234C172.838 20.5997 172.136 19.9378 170.774 19.9378C169.784 19.9378 168.917 20.186 168.174 20.6824L167.72 19.2346C168.669 18.6555 169.784 18.366 171.146 18.366C173.746 18.366 175.067 19.731 175.067 22.5025V26.184C175.025 27.1767 175.067 28.004 175.149 28.5831ZM172.838 25.1498V23.578C170.403 23.5366 169.165 24.1984 169.165 25.6049C169.165 26.1426 169.288 26.5149 169.577 26.7631C169.866 27.0113 170.238 27.1354 170.65 27.1354C171.146 27.1354 171.6 26.9699 172.012 26.6803C172.425 26.3908 172.673 25.9771 172.797 25.4808C172.838 25.398 172.838 25.2739 172.838 25.1498Z" fill="white"/>
<path d="M187.82 28.5828H185.839L185.715 26.9696H185.674C185.055 28.2106 183.982 28.7897 182.454 28.7897C181.258 28.7897 180.226 28.3346 179.442 27.3833C178.657 26.4319 178.245 25.1909 178.245 23.7018C178.245 22.0885 178.657 20.7648 179.524 19.7721C180.35 18.8207 181.381 18.3657 182.62 18.3657C183.982 18.3657 184.89 18.8207 185.426 19.7307H185.467V13.981H187.696V25.8941C187.737 26.8455 187.737 27.7555 187.82 28.5828ZM185.509 24.3636V22.709C185.509 22.4194 185.509 22.1713 185.426 22.0058C185.302 21.468 185.055 21.013 184.642 20.6407C184.229 20.2685 183.734 20.103 183.156 20.103C182.331 20.103 181.67 20.4339 181.216 21.0958C180.762 21.7576 180.515 22.5849 180.515 23.619C180.515 24.6118 180.721 25.3977 181.216 26.0182C181.712 26.68 182.331 27.011 183.156 27.011C183.899 27.011 184.477 26.7214 184.931 26.1837C185.302 25.6873 185.509 25.0668 185.509 24.3636Z" fill="white"/>
<path d="M206.847 23.4954C206.847 25.0259 206.393 26.3082 205.526 27.301C204.618 28.3351 203.38 28.8315 201.853 28.8315C200.367 28.8315 199.212 28.3351 198.345 27.3837C197.478 26.3909 197.024 25.1913 197.024 23.7022C197.024 22.1303 197.478 20.8894 198.386 19.8966C199.294 18.9039 200.491 18.4075 202.018 18.4075C203.504 18.4075 204.66 18.9039 205.568 19.8552C206.393 20.7653 206.847 21.9649 206.847 23.4954ZM204.536 23.5367C204.536 22.6267 204.329 21.7994 203.917 21.1789C203.463 20.393 202.802 19.9793 201.936 19.9793C201.028 19.9793 200.367 20.393 199.913 21.1789C199.5 21.8408 199.335 22.6681 199.335 23.5781C199.335 24.4881 199.542 25.3154 199.913 25.9773C200.408 26.7632 201.069 27.1769 201.936 27.1769C202.802 27.1769 203.463 26.7632 203.917 25.9359C204.329 25.2741 204.536 24.4881 204.536 23.5367Z" fill="white"/>
<path d="M218.775 28.5833H216.587V22.8335C216.587 21.0548 215.927 20.1862 214.565 20.1862C213.904 20.1862 213.368 20.4344 212.955 20.9307C212.542 21.4271 212.336 22.0062 212.336 22.6681V28.6247H210.107V21.4685C210.107 20.5998 210.066 19.6484 210.025 18.6143H211.965L212.047 20.1862H212.088C212.336 19.6898 212.749 19.3175 213.244 18.9866C213.863 18.6143 214.524 18.4075 215.266 18.4075C216.216 18.4075 216.959 18.697 217.578 19.3175C218.362 20.0621 218.733 21.1789 218.733 22.6267V28.5833H218.775Z" fill="white"/>
<path d="M233.757 20.2272H231.321V25.1083C231.321 26.3493 231.775 26.9697 232.601 26.9697C233.014 26.9697 233.344 26.9284 233.591 26.887L233.674 28.5416C233.22 28.7071 232.642 28.7898 231.941 28.7898C231.074 28.7898 230.372 28.5003 229.877 28.0039C229.382 27.4661 229.134 26.5561 229.134 25.3151V20.2686H227.648V18.614H229.134V16.7939L231.321 16.1321V18.614H233.757V20.2272Z" fill="white"/>
<path d="M245.561 28.5829H243.332V22.8746C243.332 21.0545 242.672 20.1858 241.31 20.1858C240.278 20.1858 239.576 20.7236 239.205 21.7577C239.122 21.9645 239.081 22.2541 239.081 22.5436V28.5829H236.852V13.9397H239.081V19.979H239.122C239.824 18.8621 240.814 18.3244 242.135 18.3244C243.043 18.3244 243.827 18.614 244.405 19.2344C245.148 19.979 245.519 21.0959 245.519 22.585V28.5829H245.561Z" fill="white"/>
<path d="M257.695 23.0817C257.695 23.4953 257.654 23.8263 257.612 24.0745H250.926C250.967 25.0672 251.256 25.8118 251.875 26.3495C252.453 26.8046 253.155 27.0527 254.063 27.0527C255.053 27.0527 255.961 26.8873 256.746 26.5977L257.076 28.1282C256.127 28.5419 255.012 28.7487 253.733 28.7487C252.164 28.7487 250.967 28.2937 250.059 27.3837C249.193 26.4736 248.739 25.2327 248.739 23.7022C248.739 22.1717 249.151 20.9307 249.977 19.9379C250.844 18.8625 251.999 18.3247 253.485 18.3247C254.93 18.3247 256.003 18.8625 256.746 19.9379C257.406 20.8066 257.695 21.8407 257.695 23.0817ZM255.549 22.5026C255.549 21.8407 255.425 21.2616 255.136 20.8066C254.765 20.1861 254.145 19.8966 253.361 19.8966C252.618 19.8966 252.04 20.1861 251.586 20.8066C251.215 21.303 251.009 21.8821 250.926 22.5439H255.549V22.5026Z" fill="white"/>
</svg>
