<svg width="50" height="50" viewBox="0 0 50 50" fill="none" xmlns="http://www.w3.org/2000/svg">
<g clip-path="url(#clip0)">
<path d="M25.0009 49.9998C38.808 49.9998 50.0008 38.807 50.0008 24.9999C50.0008 11.1928 38.808 0 25.0009 0C11.1938 0 0.000976562 11.1928 0.000976562 24.9999C0.000976562 38.807 11.1938 49.9998 25.0009 49.9998Z" fill="#4E598F"/>
<path d="M49.9604 23.604L38.1854 11.8252C37.9903 11.8843 37.5035 11.6578 37.2896 11.7008C32.2391 12.5426 27.357 11.7008 22.4748 13.0475C20.1179 13.721 19.9495 16.5829 19.1078 18.4347C17.9294 21.8017 18.0978 25.5054 16.5825 28.704C15.5725 30.8926 13.2155 32.2394 12.3738 34.7646C12.093 35.8179 12.1096 37.1454 11.7921 38.1523L23.6065 49.9611C24.0679 49.9865 24.5323 50.0004 25 50.0004C38.8069 50.0004 49.9999 38.8075 49.9999 25.0005C50 24.5318 49.986 24.0663 49.9604 23.604Z" fill="#364270"/>
<path d="M35.4533 10.6904H14.5466C12.4168 10.6904 10.6902 12.417 10.6902 14.5469V35.4535C10.6902 37.5835 12.4167 39.3099 14.5466 39.3099H24.8575L24.8754 29.0832H22.2182C21.8729 29.0832 21.5926 28.8039 21.5914 28.4586L21.5784 25.1619C21.5771 24.8149 21.8584 24.5326 22.2054 24.5326H24.8579V21.3472C24.8579 17.6508 27.1155 15.638 30.413 15.638H33.119C33.465 15.638 33.746 15.9186 33.746 16.2649V19.0445C33.746 19.3908 33.4653 19.6714 33.1194 19.6714L31.4587 19.6724C29.6654 19.6724 29.3179 20.5245 29.3179 21.7753V24.533H33.2585C33.6342 24.533 33.9254 24.8609 33.881 25.2334L33.4903 28.5302C33.4531 28.8458 33.1854 29.0834 32.8677 29.0834H29.3357L29.3178 39.3105H35.4532C37.583 39.3105 39.3096 37.5838 39.3096 35.454V14.5469C39.3097 12.4171 37.583 10.6904 35.4533 10.6904Z" fill="white"/>
<path d="M24.8575 39.3097L24.8754 29.083H24.8317V39.3097H24.8575Z" fill="white"/>
<path d="M35.4533 10.6904H24.8317V24.5323H24.8579V21.347C24.8579 17.6506 27.1155 15.6378 30.413 15.6378H33.119C33.465 15.6378 33.746 15.9184 33.746 16.2647V19.0443C33.746 19.3906 33.4653 19.6713 33.1194 19.6713L31.4587 19.6722C29.6654 19.6722 29.318 20.5243 29.318 21.7751V24.5327H33.2585C33.6343 24.5327 33.9255 24.8606 33.881 25.2331L33.4903 28.5299C33.4531 28.8455 33.1854 29.0831 32.8678 29.0831H29.3357L29.3179 39.3102H35.4532C37.583 39.3102 39.3096 37.5835 39.3096 35.4537V14.5469C39.3097 12.4171 37.5831 10.6904 35.4533 10.6904Z" fill="white"/>
</g>
<defs>
<clipPath id="clip0">
<rect width="50" height="50" fill="white"/>
</clipPath>
</defs>
</svg>
