<svg width="842" height="242" viewBox="0 0 842 242" fill="none" xmlns="http://www.w3.org/2000/svg">
<g clip-path="url(#clip0)">
<path d="M430.028 130.545L382.335 59.3194H356.602V198.385H385.335V113.586L430.028 179.425L474.521 113.586V198.385H503.44V59.3194H477.707L430.028 130.545Z" fill="white"/>
<path d="M574.626 95.2391C558.866 95.2391 545.693 100.026 535.52 109.799C525.347 119.372 520.16 132.145 520.16 147.905V148.705C520.16 164.465 525.147 177.038 535.32 186.611C545.493 195.985 558.666 200.785 575.226 200.785C592.186 200.785 606.746 194.598 618.519 182.425L601.159 165.865C594.173 172.452 585.999 175.638 576.613 175.638C560.853 175.638 550.48 167.852 549.88 155.892H625.892C626.092 152.892 626.292 149.705 626.292 146.319C626.292 131.759 621.506 119.785 611.919 110.012C602.359 100.226 589.986 95.2391 574.626 95.2391ZM550.28 136.532C551.08 127.159 561.653 119.772 574.613 119.772C586.586 119.772 596.359 127.159 596.359 136.532H550.28Z" fill="white"/>
<path d="M676.572 59.3194H647.639V97.8257H634.279V124.759H647.639V198.385H676.572V124.759H698.718V97.8257H676.572V59.3194Z" fill="white"/>
<path d="M726.451 55.5328C717.078 55.5328 709.491 62.9194 709.491 72.4926C709.491 81.8659 717.078 89.2525 726.451 89.2525C735.825 89.2525 743.411 81.8659 743.411 72.4926C743.411 62.9194 735.825 55.5328 726.451 55.5328Z" fill="white"/>
<path d="M741.398 97.8257H711.678V198.385H741.398V97.8257Z" fill="white"/>
<path d="M817.024 138.732C805.851 134.745 797.477 133.345 793.677 131.745C790.491 130.345 789.491 128.959 789.491 126.359C789.491 122.572 793.091 119.972 799.464 119.972C808.037 119.972 815.224 122.359 820.611 127.345L834.77 107.799C825.797 99.2257 814.424 94.8257 800.251 94.8257C789.277 94.8257 780.104 97.6124 772.518 103.399C764.931 108.986 761.144 116.959 761.144 127.145C761.144 140.519 768.931 149.692 784.291 155.078C787.291 156.078 791.877 157.478 797.851 158.865C803.837 160.265 807.824 161.652 810.024 162.852C812.224 164.052 813.411 165.638 813.411 167.638C813.411 173.025 808.424 175.812 798.251 175.812C786.877 175.812 776.304 171.425 770.718 164.838L753.558 183.198C763.331 195.171 777.891 201.158 797.451 201.158C826.984 201.158 841.744 187.785 841.744 167.238C841.757 153.892 833.584 144.319 817.024 138.732Z" fill="white"/>
<path d="M230.644 7.37384C214.324 36.8802 189.791 67.5332 158.618 95.293L153.244 89.2664C183.351 62.4666 207.151 33.0536 223.11 4.92053C214.817 2.48056 206.164 0.893906 197.244 0.280579H180.977C151.831 2.20056 125.511 14.4138 105.618 33.3336L124.405 36.0669L92.525 67.1332L100.045 110.999L70.6852 95.5596C69.5786 100.733 68.7919 106.04 68.3652 111.426V130.533C69.5119 145.039 73.2185 158.812 79.0051 171.426C110.765 158.666 143.911 137.559 174.391 110.413C208.004 80.4931 233.817 47.2934 249.55 16.2938C243.563 12.8138 237.244 9.80048 230.644 7.37384Z" fill="url(#paint0_linear)"/>
<path d="M128.031 225.424C161.484 219.785 199.911 200.745 234.204 170.225C240.817 164.332 247.004 158.238 252.79 152.012C251.217 149.705 250.124 147.025 249.844 144.065C248.937 134.625 255.843 126.225 265.283 125.319C268.19 125.039 270.95 125.572 273.47 126.612C285.87 109.132 294.99 91.2658 300.363 74.2393V73.7859C291.096 51.9595 275.603 33.413 256.11 20.3865C239.95 52.3462 213.831 86.1325 179.764 116.466C148.925 143.919 115.352 165.345 83.0319 178.505V179.345C93.5918 198.465 109.192 214.411 128.031 225.424Z" fill="url(#paint1_linear)"/>
<path d="M309.695 128.385V113.866C309.682 113.572 309.669 113.266 309.655 112.972C309.602 112.106 309.535 111.226 309.455 110.359C309.282 108.359 309.055 106.359 308.789 104.386C308.656 103.346 308.496 102.319 308.336 101.292C308.029 99.3857 307.669 97.5057 307.269 95.6257C307.016 94.4257 306.736 93.2391 306.442 92.0524C306.149 90.8791 305.842 89.7191 305.522 88.5591C305.256 87.5858 304.989 86.5991 304.696 85.6392C298.976 100.719 290.669 116.159 280.002 131.265C282.216 133.852 283.709 137.105 284.056 140.759C284.962 150.199 278.042 158.585 268.603 159.505C265.043 159.852 261.629 159.065 258.723 157.478C252.776 163.905 246.416 170.198 239.603 176.265C207.537 204.811 171.79 223.531 139.204 231.144C149.457 235.798 160.444 239.104 171.99 240.744C172.404 240.798 172.817 240.864 173.23 240.918C175.364 241.198 177.523 241.411 179.697 241.584C179.923 241.598 180.15 241.624 180.363 241.638H197.71C257.949 237.264 305.976 188.825 309.695 128.385Z" fill="url(#paint2_linear)"/>
<path d="M83.8578 64.3194L107.044 41.7063L98.2576 40.4396L74.9912 37.053L60.658 8.01326L46.3248 37.053L14.2718 41.7063L37.4716 64.3194L31.9916 96.239L60.658 81.1725L72.4179 87.3458L89.3244 96.239L83.8578 64.3194Z" fill="url(#paint3_linear)"/>
<path d="M43.1382 122.119L28.5517 119.999L22.0317 106.772L15.4984 119.999L0.911926 122.119L11.4718 132.412L8.97851 146.932L22.0317 140.079L35.0716 146.932L32.5916 132.412L43.1382 122.119Z" fill="#EA5528"/>
<path d="M56.178 154.025L52.1514 145.852L48.1115 154.025L39.0982 155.332L45.6315 161.692L44.0848 170.665L52.1514 166.425L60.218 170.665L58.6713 161.692L65.2046 155.332L56.178 154.025Z" fill="#EA5528"/>
</g>
<defs>
<linearGradient id="paint0_linear" x1="68.0808" y1="85.8751" x2="249.792" y2="85.8751" gradientUnits="userSpaceOnUse">
<stop stop-color="#F5AA19"/>
<stop offset="0.1058" stop-color="#F5AA19"/>
<stop offset="1" stop-color="#EA5528"/>
</linearGradient>
<linearGradient id="paint1_linear" x1="82.8027" y1="122.865" x2="300.408" y2="122.865" gradientUnits="userSpaceOnUse">
<stop stop-color="#F5AA19"/>
<stop offset="0.1058" stop-color="#F5AA19"/>
<stop offset="1" stop-color="#EA5528"/>
</linearGradient>
<linearGradient id="paint2_linear" x1="138.784" y1="163.643" x2="309.699" y2="163.643" gradientUnits="userSpaceOnUse">
<stop stop-color="#F5AA19"/>
<stop offset="0.1058" stop-color="#F5AA19"/>
<stop offset="1" stop-color="#EA5528"/>
</linearGradient>
<linearGradient id="paint3_linear" x1="19.0058" y1="34.3814" x2="95.4452" y2="84.0446" gradientUnits="userSpaceOnUse">
<stop stop-color="#EA5528"/>
<stop offset="0.1058" stop-color="#EA5528"/>
<stop offset="1" stop-color="#F5A919"/>
</linearGradient>
<clipPath id="clip0">
<rect x="0.911865" width="840.565" height="241.944" fill="white"/>
</clipPath>
</defs>
</svg>
