<svg width="499" height="114" viewBox="0 0 499 114" fill="none" xmlns="http://www.w3.org/2000/svg">
<path d="M454.43 90.222H419.296C418.97 90.222 418.712 89.9641 418.712 89.6383V46.196C418.712 45.8702 418.441 45.6122 418.115 45.6122H405.888C405.563 45.6122 405.305 45.8702 405.305 46.196V102.006C405.305 102.332 405.576 102.589 405.888 102.589H454.43C454.755 102.589 454.999 102.332 454.999 102.006V90.8058C455.013 90.4799 454.769 90.222 454.43 90.222ZM303.853 43.5894C287.27 43.5894 273.835 57.0973 273.835 73.7682C273.835 90.4256 287.283 103.947 303.853 103.947C320.436 103.947 333.884 90.4392 333.884 73.7682C333.884 57.0973 320.422 43.5894 303.853 43.5894ZM303.853 89.8962C295.005 89.8962 287.826 82.6875 287.826 73.7818C287.826 64.8762 295.005 57.6675 303.853 57.6675C312.714 57.6675 319.907 64.8762 319.907 73.7818C319.893 82.6739 312.714 89.8962 303.853 89.8962ZM368.855 43.5894C352.272 43.5894 338.824 57.0973 338.824 73.7682C338.824 90.4256 352.272 103.947 368.855 103.947C385.438 103.947 398.872 90.4392 398.872 73.7682C398.872 57.0973 385.451 43.5894 368.855 43.5894ZM368.855 89.8962C359.993 89.8962 352.815 82.6875 352.815 73.7818C352.815 64.8762 359.993 57.6675 368.855 57.6675C377.703 57.6675 384.895 64.8762 384.895 73.7818C384.895 82.6739 377.703 89.8962 368.855 89.8962ZM81.7605 59.8531C81.5434 59.6088 81.3534 59.6902 81.3534 60.0296V102.019C81.3534 102.345 81.6248 102.603 81.937 102.603H94.1638C94.476 102.603 94.7474 102.345 94.7474 102.019V73.4967C94.7474 73.1709 94.5574 72.7229 94.3267 72.4921L81.7605 59.8531ZM141.022 45.6122H128.117C127.791 45.6122 127.357 45.8023 127.126 46.0331L111.887 61.9981C111.67 62.2425 111.303 62.2425 111.073 61.9981L95.8194 46.0195C95.5887 45.7887 95.1545 45.5986 94.8288 45.5986H81.937C81.6248 45.5986 81.3534 45.8566 81.3534 46.1824V50.5809C81.3534 50.9067 81.5434 51.3547 81.7605 51.5855L111.073 81.0312C111.29 81.262 111.67 81.262 111.9 81.0312L127.805 65.0391C128.022 64.8083 128.225 64.8897 128.225 65.202V101.979C128.225 102.304 128.483 102.562 128.809 102.562H141.036C141.362 102.562 141.619 102.304 141.619 101.979V46.196C141.606 45.8702 141.348 45.6122 141.022 45.6122ZM250.372 45.6665C250.06 45.6394 249.517 45.6258 249.192 45.6258C246.749 45.6122 232.812 45.6122 232.812 45.6122H220.015C219.676 45.6122 219.418 45.8702 219.418 46.196V75.0172C219.418 75.343 219.16 75.601 218.821 75.601H204.654C204.328 75.601 204.165 75.8453 204.301 76.144L208.711 86.5566C208.833 86.8552 209.2 87.0996 209.525 87.0996H218.835C219.174 87.0996 219.432 87.3575 219.432 87.6833V101.992C219.432 102.318 219.69 102.576 220.029 102.576H232.256C232.568 102.576 232.826 102.318 232.826 101.992V87.6969C232.826 87.3711 233.097 87.1132 233.436 87.1132H248.065C248.337 87.1267 248.622 87.1403 248.893 87.1403C249.178 87.1403 249.449 87.1267 249.721 87.1132C260.781 86.638 269.547 77.5287 269.547 66.3695C269.533 55.4139 261.093 46.4268 250.372 45.6665ZM247.658 75.6145H233.409C233.084 75.6145 232.799 75.3566 232.799 75.0308V57.7218C232.799 57.3959 233.07 57.138 233.409 57.138H247.658C252.733 57.138 256.845 61.2786 256.845 66.3831C256.845 71.4739 252.733 75.6145 247.658 75.6145ZM64.0784 42.1776L58.9352 37.7247C58.7859 37.6026 58.7452 37.3989 58.8131 37.2224L61.4322 30.9369C61.595 30.5432 61.1608 30.1631 60.7944 30.3938L54.9998 33.9371C54.837 34.0186 54.6334 34.005 54.4841 33.8828L49.341 29.4436C49.0153 29.1585 48.5268 29.4571 48.6218 29.878L50.1823 36.5165C50.2231 36.7066 50.1416 36.8966 49.9788 36.9916L44.1842 40.5349C43.8178 40.7521 43.9536 41.3223 44.3742 41.3494L51.1323 41.9061C51.3223 41.9196 51.4851 42.0554 51.5258 42.2454L53.0864 48.884C53.1814 49.3048 53.7649 49.3455 53.9278 48.9518L56.5468 42.6663C56.6147 42.4898 56.8047 42.3812 56.9947 42.3948L63.7527 42.9514C64.1869 42.9921 64.4041 42.4491 64.0784 42.1776ZM75.9117 51.762L71.1485 51.4498C71.0128 51.4362 70.9043 51.3547 70.8771 51.219L69.6965 46.5625C69.6287 46.2774 69.2351 46.2503 69.1266 46.5218L67.3488 50.9882C67.2945 51.1104 67.186 51.1918 67.0503 51.1783L62.2735 50.866C61.9885 50.8524 61.8393 51.2054 62.0564 51.3955L65.734 54.4636C65.829 54.545 65.8697 54.6808 65.8154 54.803L64.0377 59.2694C63.9291 59.5409 64.2277 59.7853 64.4855 59.6359L68.5295 57.0701C68.638 57.0022 68.7873 57.0158 68.8823 57.0973L72.5598 60.1654C72.7905 60.3554 73.1162 60.1382 73.0484 59.8667L71.8678 55.1967C71.8406 55.0745 71.8949 54.9387 72.0035 54.8709L76.0474 52.305C76.3053 52.1693 76.1967 51.7892 75.9117 51.762ZM81.5299 32.2266L79.1008 24.502C79.0465 24.3119 79.1143 24.1083 79.2772 23.9861L85.8316 19.2753C86.1845 19.0174 86.0081 18.4472 85.5738 18.4472L77.513 18.3793C77.3095 18.3793 77.1466 18.2436 77.0788 18.0535L74.6497 10.3425C74.514 9.92168 73.9169 9.9081 73.7812 10.3289L71.23 17.9992C71.1621 18.1893 70.9857 18.3115 70.7957 18.3115L62.7349 18.2436C62.2871 18.2436 62.0971 18.8002 62.4635 19.0717L68.9501 23.8775C69.113 23.9997 69.1673 24.2033 69.113 24.3934L66.5618 32.0772C66.426 32.4981 66.901 32.8511 67.2674 32.5931L73.8219 27.8823C73.9847 27.7602 74.2019 27.7737 74.3647 27.8823L80.8378 32.6881C81.177 33.0004 81.6656 32.661 81.5299 32.2266ZM209.675 50.5945V46.196C209.675 45.8702 209.403 45.6122 209.091 45.6122H196.186C195.86 45.6122 195.426 45.8023 195.195 46.0331L179.928 62.0253C179.698 62.2696 179.345 62.2696 179.114 62.0253L163.82 46.0195C163.59 45.7887 163.156 45.5986 162.83 45.5986H149.911C149.585 45.5986 149.327 45.8566 149.327 46.1824V50.866C149.327 51.3004 149.517 51.5177 149.748 51.7484L172.071 74.0669V101.585C172.071 102.169 172.546 102.657 173.13 102.657H184.257C184.841 102.657 185.316 102.182 185.316 101.585V75.6553L209.254 51.6127C209.485 51.3819 209.675 50.9203 209.675 50.5945Z" fill="#FE5420"/>
</svg>
