<svg width="50" height="50" viewBox="0 0 50 50" fill="none" xmlns="http://www.w3.org/2000/svg">
<g clip-path="url(#clip0)">
<path d="M25 50C38.8071 50 50 38.8071 50 25C50 11.1929 38.8071 0 25 0C11.1929 0 0 11.1929 0 25C0 38.8071 11.1929 50 25 50Z" fill="#7AA5DA"/>
<path d="M49.9926 24.4211L38.8948 13.3418L20.8179 35.376L33.8339 48.392C43.281 44.8226 50 35.6963 50 24.9995C50 24.8061 49.997 24.6133 49.9926 24.4211Z" fill="#5786B5"/>
<path d="M37.4724 13.0387C38.4691 12.6499 39.4994 13.5219 39.2805 14.569L34.8108 35.9343C34.602 36.936 33.4252 37.3872 32.6003 36.7811L25.8529 31.8283L22.4135 35.3401C21.8091 35.9563 20.767 35.7054 20.5078 34.8838L18.0263 27.0067L11.3747 25.042C10.501 24.7844 10.4505 23.569 11.2973 23.2374L37.4724 13.0387ZM34.1912 17.7794C34.4825 17.5218 34.1441 17.0673 33.8141 17.2727L19.4572 26.1767C19.2046 26.3333 19.0885 26.6414 19.1777 26.9258L21.1356 35.5235C21.1744 35.6548 21.3628 35.6363 21.3797 35.5L21.8174 28.9478C21.8342 28.7862 21.9117 28.638 22.0329 28.5303L34.1912 17.7794Z" fill="white"/>
<path d="M33.8141 17.2735C34.1441 17.0681 34.4825 17.5226 34.1913 17.7802L22.0331 28.5311C21.9119 28.6388 21.8344 28.7869 21.8175 28.9486L21.3798 35.5007C21.363 35.637 21.1745 35.6556 21.1357 35.5242L19.1778 26.9266C19.0885 26.6421 19.2047 26.334 19.4573 26.1775L33.8141 17.2735Z" fill="#9EC2E5"/>
<path d="M21.2064 35.6127C20.8899 35.4999 20.6222 35.2473 20.5078 34.8837L18.0263 27.0065L11.3747 25.0419C10.501 24.7842 10.4505 23.5688 11.2973 23.2372L37.4723 13.0386C38.1154 12.7877 38.7737 13.0622 39.0986 13.5707C39.0379 13.4781 38.9656 13.3922 38.8848 13.3165L21.1272 27.813V28.4477L21.0295 28.377L21.1272 32.3737V35.5791C21.1525 35.5909 21.1793 35.6009 21.2063 35.6093V35.6127H21.2064Z" fill="white"/>
<path d="M39.309 14.2104C39.3141 14.3248 39.3057 14.446 39.2804 14.5689L34.8107 35.9343C34.6019 36.9359 33.4251 37.3871 32.6002 36.7811L25.8528 31.8282L21.1272 28.4478V27.8131L38.8848 13.3164C38.9656 13.3922 39.038 13.478 39.0986 13.5706C39.1104 13.5908 39.1221 13.6093 39.1339 13.6278C39.144 13.648 39.1558 13.6683 39.166 13.6867C39.176 13.7069 39.1862 13.7271 39.1946 13.7474C39.2046 13.7692 39.2131 13.7895 39.2215 13.8113C39.2283 13.8299 39.2367 13.85 39.2434 13.872C39.2653 13.9376 39.2821 14.005 39.2939 14.0757C39.3006 14.1194 39.3057 14.1633 39.309 14.2104Z" fill="white"/>
<path d="M25.8528 31.8276L22.4135 35.3394C22.3848 35.3681 22.3546 35.3967 22.3242 35.422C22.2939 35.4473 22.2636 35.4691 22.2316 35.491C22.23 35.4927 22.23 35.4927 22.23 35.4927C22.166 35.5348 22.1004 35.5701 22.0313 35.5987C21.996 35.6122 21.9623 35.6257 21.9269 35.6341C21.7804 35.6778 21.6306 35.6896 21.4825 35.6745C21.4438 35.6712 21.4051 35.6644 21.368 35.6577C21.363 35.6577 21.358 35.656 21.3529 35.6544C21.3159 35.6443 21.2788 35.6342 21.2418 35.6224C21.23 35.619 21.2182 35.6156 21.2064 35.6089L21.1273 32.3732V28.4473L25.8528 31.8276Z" fill="white"/>
<path d="M22.3243 35.4229C22.294 35.4481 22.2636 35.4717 22.2317 35.4936V35.4919C22.2637 35.47 22.294 35.4481 22.3243 35.4229Z" fill="white"/>
<path d="M22.2316 35.4922V35.4938C22.2316 35.4938 22.2316 35.4922 22.23 35.4938C22.23 35.4938 22.23 35.4938 22.2316 35.4922Z" fill="white"/>
<path d="M22.0314 35.6002C22.1004 35.5716 22.166 35.5362 22.23 35.4941C22.166 35.5361 22.0987 35.5715 22.0314 35.6002Z" fill="white"/>
<path d="M21.4825 35.6752C21.6307 35.6903 21.7805 35.6785 21.927 35.6348C21.8209 35.6685 21.7115 35.6836 21.6021 35.6836C21.5684 35.6836 21.5347 35.6819 21.5028 35.6785C21.496 35.6786 21.4893 35.6786 21.4825 35.6752Z" fill="white"/>
<path d="M21.602 35.6838C21.5683 35.6838 21.5346 35.6821 21.5027 35.6787C21.5346 35.6821 21.5683 35.6838 21.602 35.6838Z" fill="white"/>
<path d="M21.4825 35.6752C21.4892 35.6785 21.496 35.6785 21.5027 35.6785C21.4674 35.6769 21.4353 35.6718 21.4017 35.665C21.4286 35.6702 21.4555 35.6735 21.4825 35.6752Z" fill="white"/>
<path d="M21.4825 35.675C21.4555 35.6733 21.4286 35.6699 21.4017 35.6649C21.3899 35.6633 21.3782 35.6616 21.368 35.6582C21.4051 35.6649 21.4437 35.6717 21.4825 35.675Z" fill="white"/>
<path d="M21.2418 35.623C21.2788 35.6349 21.3159 35.6449 21.353 35.6551C21.3378 35.6518 21.3227 35.6483 21.3075 35.645C21.3008 35.6434 21.2941 35.6417 21.289 35.6383C21.2738 35.6349 21.257 35.6298 21.2418 35.623Z" fill="white"/>
<path d="M21.3074 35.6445C21.3225 35.6479 21.3376 35.6513 21.3528 35.6546C21.3376 35.6529 21.3225 35.6496 21.3074 35.6445Z" fill="white"/>
<path d="M21.2417 35.6227C21.2569 35.6294 21.2738 35.6345 21.2889 35.6378C21.2636 35.6327 21.2384 35.6243 21.2131 35.6143C21.2232 35.6176 21.2316 35.621 21.2417 35.6227Z" fill="white"/>
<path d="M21.2418 35.6237C21.2317 35.6221 21.2232 35.6187 21.2132 35.6153C21.2115 35.617 21.2081 35.6153 21.2064 35.6137V35.6104C21.2181 35.617 21.23 35.6203 21.2418 35.6237Z" fill="white"/>
<path d="M21.1272 32.374L21.2063 35.6097C21.1793 35.6013 21.1524 35.5911 21.1272 35.5794V32.374Z" fill="white"/>
<path d="M21.1272 28.4486V32.3746L21.0295 28.3779L21.1272 28.4486Z" fill="white"/>
<path d="M34.1913 17.7792L22.0331 28.5301C21.9119 28.6378 21.8344 28.7859 21.8175 28.9475L21.3806 35.5003C21.3638 35.6366 21.1752 35.6552 21.1348 35.5238L19.1778 26.9257C19.0885 26.6412 19.2047 26.3331 19.4573 26.1765L33.8142 17.2725C34.1442 17.0671 34.4826 17.5216 34.1913 17.7792Z" fill="#ADBCC9"/>
</g>
<defs>
<clipPath id="clip0">
<rect width="50" height="50" fill="white"/>
</clipPath>
</defs>
</svg>
