<svg width="50" height="50" viewBox="0 0 50 50" fill="none" xmlns="http://www.w3.org/2000/svg">
<path d="M25 50C38.8071 50 50 38.8071 50 25C50 11.1929 38.8071 0 25 0C11.1929 0 0 11.1929 0 25C0 38.8071 11.1929 50 25 50Z" fill="#65A2D9"/>
<path d="M38.3804 13.6055C35.7727 15.8681 33.1799 17.8511 31.0606 20.6223C25.8477 26.9086 19.4773 35.8273 10.8081 34.4979L26.2974 49.9662C39.4278 49.295 49.8811 38.4923 49.9972 25.2225L38.3804 13.6055Z" fill="#3A7CA5"/>
<path d="M38.8546 15.8659C38.2186 16.148 37.5586 16.3705 36.8812 16.5314C37.6277 15.8224 38.1888 14.9352 38.5053 13.9451C38.5957 13.6626 38.2886 13.418 38.0334 13.5693C37.0911 14.1284 36.076 14.5475 35.0165 14.8156C34.9551 14.8313 34.8918 14.8391 34.8281 14.8391C34.6348 14.8391 34.4476 14.7675 34.2997 14.6374C33.1725 13.6438 31.7225 13.0967 30.2171 13.0967C29.5656 13.0967 28.9081 13.1982 28.2624 13.3985C26.2618 14.0189 24.718 15.6694 24.2334 17.7055C24.0518 18.4689 24.0028 19.2336 24.0873 19.9773C24.0968 20.0629 24.0567 20.1225 24.0318 20.1504C23.9878 20.1994 23.9259 20.2276 23.8614 20.2276C23.8543 20.2276 23.8467 20.2273 23.8395 20.2267C19.46 19.8196 15.5107 17.7099 12.7195 14.2855C12.5774 14.1108 12.3041 14.1323 12.1907 14.3268C11.6442 15.2648 11.3553 16.3374 11.3553 17.4289C11.3553 19.1015 12.0276 20.6779 13.1949 21.8273C12.704 21.7107 12.2288 21.5274 11.7873 21.2821C11.5736 21.1636 11.311 21.3163 11.308 21.5606C11.2777 24.0454 12.7326 26.2566 14.912 27.2522C14.868 27.2531 14.8241 27.2535 14.7801 27.2535C14.4347 27.2535 14.0847 27.2205 13.7406 27.1544C13.5 27.1088 13.298 27.3367 13.3726 27.5697C14.0802 29.7785 15.9817 31.4065 18.2575 31.7758C16.3689 33.0437 14.1693 33.7123 11.8803 33.7123L11.1668 33.712C10.9466 33.712 10.7606 33.8555 10.7049 34.0685C10.6498 34.2779 10.7512 34.4994 10.9389 34.6085C13.5182 36.1097 16.4605 36.9029 19.4485 36.9029C22.0641 36.9029 24.5108 36.3841 26.7206 35.3602C28.7464 34.4218 30.5366 33.0804 32.0415 31.3732C33.4435 29.7827 34.5396 27.9469 35.2998 25.9162C36.0242 23.9811 36.4072 21.9155 36.4072 19.9441V19.85C36.4072 19.5335 36.5502 19.2356 36.8001 19.0326C37.748 18.2629 38.5736 17.357 39.2535 16.34C39.4331 16.0717 39.1499 15.735 38.8546 15.8659Z" fill="white"/>
<path d="M38.8548 15.8659C38.2186 16.148 37.5588 16.3705 36.8813 16.5314C37.6278 15.8224 38.189 14.9352 38.5056 13.9451C38.596 13.6626 38.2889 13.418 38.0337 13.5693C37.0913 14.1284 36.0763 14.5475 35.0167 14.8156C34.9554 14.8312 34.8921 14.8391 34.8283 14.8391C34.6351 14.8391 34.4479 14.7675 34.2999 14.6374C33.1728 13.6438 31.7228 13.0967 30.2174 13.0967C29.5659 13.0967 28.9083 13.1982 28.2627 13.3985C26.8641 13.8322 25.6901 14.7704 24.9438 15.9909V36.057C25.5515 35.8589 26.1443 35.627 26.721 35.3598C28.7469 34.4215 30.537 33.0801 32.0419 31.3728C33.4439 29.7823 34.54 27.9466 35.3002 25.9159C36.0246 23.9808 36.4076 21.9152 36.4076 19.9438V19.8497C36.4076 19.5332 36.5507 19.2353 36.8006 19.0323C37.7484 18.2626 38.574 17.3567 39.2539 16.3397C39.4333 16.0717 39.1501 15.735 38.8548 15.8659Z" fill="white"/>
</svg>
